<?xml version="1.0" standalone="no"?>
<!DOCTYPE svg PUBLIC "-//W3C//DTD SVG 20010904//EN"
 "http://www.w3.org/TR/2001/REC-SVG-20010904/DTD/svg10.dtd">
<svg version="1.0" xmlns="http://www.w3.org/2000/svg"
 width="260.000000pt" height="260.000000pt" viewBox="0 0 260.000000 260.000000"
 preserveAspectRatio="xMidYMid meet">
<metadata>
Created by potrace 1.14, written by Peter Selinger 2001-2017
</metadata>
<g transform="translate(0.000000,260.000000) scale(0.100000,-0.100000)"
fill="#000000" stroke="none">
<path d="M0 2557 l0 -43 65 -13 c198 -40 353 -192 389 -381 l13 -67 -67 -22
c-132 -42 -269 -42 -351 0 -21 10 -41 19 -44 19 -3 0 -5 -58 -5 -130 0 -71 2
-130 5 -130 3 0 22 9 43 19 20 10 71 24 112 31 67 11 84 10 162 -9 101 -24
177 -59 266 -125 34 -25 64 -46 66 -46 2 0 6 19 10 42 9 53 36 137 47 144 5 2
26 -5 49 -16 l40 -20 0 -424 0 -423 29 -40 c16 -22 50 -57 76 -78 49 -41 48
-47 -12 -58 -28 -6 -37 -1 -79 40 -54 54 -124 145 -124 161 0 5 12 19 27 30
l27 20 -32 68 c-49 108 -64 177 -69 321 l-5 132 -40 -20 c-22 -11 -48 -22 -57
-24 -61 -15 -112 -33 -93 -34 l22 -1 0 -302 0 -303 -36 40 c-20 22 -42 52 -50
68 l-15 27 -123 0 c-94 0 -139 5 -185 19 l-61 19 0 -124 0 -124 36 0 c36 0 37
-1 31 -33 -3 -19 -19 -57 -36 -84 l-31 -51 2 -235 3 -235 40 17 c22 10 54 21
70 24 28 5 32 2 49 -40 14 -33 17 -59 13 -104 l-5 -59 95 0 c90 0 97 2 132 29
42 33 94 61 114 61 8 0 25 -20 38 -45 l24 -45 205 0 c198 0 206 1 247 24 64
37 149 66 193 66 36 0 39 -2 52 -42 l15 -43 154 -3 155 -2 13 50 c7 27 17 50
22 50 5 0 9 5 9 11 0 25 60 86 130 131 84 56 79 57 125 -32 25 -50 29 -137 7
-177 -7 -12 -12 -24 -12 -27 0 -3 55 -6 121 -6 l121 0 60 45 c33 25 67 45 75
45 9 0 36 -20 61 -45 l45 -45 113 0 c68 0 114 4 114 10 0 5 -20 28 -44 50 -82
76 -111 190 -86 338 13 80 4 75 98 52 l32 -8 0 109 c0 93 -3 114 -22 146 -13
24 -23 64 -27 111 l-7 72 28 0 28 0 0 129 c0 119 -2 130 -19 136 -11 3 -44 33
-75 65 -40 44 -59 74 -70 114 -9 30 -16 58 -16 64 0 12 106 42 148 42 l32 0 0
106 c0 106 0 106 -22 100 -62 -19 -167 -25 -243 -16 -44 5 -81 10 -82 10 -1 0
1 24 4 53 7 65 42 135 88 180 39 38 187 107 229 107 26 0 26 0 26 85 l0 85
-24 -15 c-36 -24 -129 -56 -136 -47 -17 19 -50 114 -61 174 -10 56 -10 75 5
133 17 68 57 158 76 170 5 3 15 15 20 26 10 19 5 19 -223 19 l-234 0 -7 -37
c-8 -52 -68 -170 -109 -216 l-35 -37 -63 42 c-75 50 -124 122 -134 199 l-7 49
-140 0 -140 0 40 -45 c54 -61 82 -148 82 -253 0 -64 -3 -82 -14 -82 -41 0
-167 32 -211 53 -108 53 -185 165 -185 270 l0 57 -143 0 -143 0 58 -60 c33
-34 71 -86 87 -119 33 -71 58 -178 45 -191 -12 -12 -122 -15 -194 -6 -78 11
-209 77 -260 133 -49 52 -91 138 -98 199 l-5 44 -223 0 -224 0 0 -43z m2112
-273 c107 -74 144 -196 97 -316 -22 -58 -52 -95 -113 -139 l-38 -29 -44 32
c-51 36 -88 87 -104 144 -15 51 5 132 52 209 28 46 95 125 107 125 3 0 22 -12
43 -26z m-1181 -194 c92 -28 176 -91 223 -168 l36 -60 -2 -527 -3 -528 -34 52
-33 52 -28 -26 -28 -27 -17 25 c-21 33 -85 185 -85 203 0 10 12 14 39 14 l39
0 -10 38 c-5 20 -12 63 -15 95 -5 56 -7 59 -44 74 -37 14 -39 18 -39 58 0 82
10 105 60 141 28 20 52 47 60 67 6 17 29 68 50 113 l38 80 -106 0 c-90 -1
-115 3 -160 22 -63 27 -79 39 -152 112 -45 44 -128 168 -117 175 1 1 25 9 52
18 71 23 193 21 276 -3z m579 -76 c89 -29 177 -91 226 -160 l34 -48 -32 -19
c-18 -11 -52 -32 -76 -48 -50 -34 -53 -34 -95 -13 -99 51 -185 168 -206 279
l-8 43 41 -5 c23 -3 75 -16 116 -29z m150 -849 c-7 -33 -23 -94 -36 -136 -22
-71 -26 -77 -56 -83 -17 -3 -33 -5 -35 -3 -2 2 12 37 31 78 19 41 42 115 51
164 20 103 48 144 53 78 2 -21 -2 -65 -8 -98z m-1047 71 c16 -12 17 -18 7 -36
-13 -25 -24 -18 -34 23 -7 30 0 33 27 13z m967 -472 c-16 -18 -140 -87 -146
-81 -3 3 21 42 54 88 32 46 68 99 78 117 l19 33 3 -71 c2 -43 -2 -77 -8 -86z
m230 81 c0 -7 -7 -18 -15 -25 -11 -9 -15 -32 -15 -82 l0 -70 30 4 c17 3 30 1
30 -3 0 -17 -110 -125 -148 -147 l-40 -22 -21 25 c-11 15 -25 41 -31 60 -10
29 -16 34 -48 37 l-37 3 35 21 c26 15 39 32 49 63 16 56 71 115 134 145 52 24
77 22 77 -9z m390 -95 c80 -41 140 -135 140 -220 0 -38 -26 -124 -54 -178 -27
-52 -79 -38 -168 46 -69 65 -82 93 -82 182 0 79 7 100 57 163 32 41 39 41 107
7z m-928 -57 l28 -27 25 24 c34 32 49 16 63 -69 40 -242 -167 -408 -568 -455
-145 -16 -145 -17 -155 69 -19 148 29 257 157 362 47 38 60 42 116 32 29 -6
74 -9 100 -7 l47 3 -49 31 -49 32 59 10 c47 8 63 7 79 -4 25 -18 49 -18 42 0
-8 20 2 26 42 26 24 0 43 -8 63 -27z m-763 -74 l68 -11 -10 -35 c-17 -54 -92
-131 -156 -160 -46 -21 -72 -26 -146 -27 -93 -1 -165 16 -165 38 0 21 31 79
59 109 34 37 71 56 151 78 78 21 110 23 199 8z"/>
<path d="M0 1442 l0 -188 59 28 c33 16 86 33 118 40 32 6 59 12 60 12 1 1 -4
33 -12 71 -19 88 -19 93 3 98 12 3 11 5 -6 6 -33 1 -125 47 -177 87 l-45 34 0
-188z"/>
</g>
</svg>
